<svg width="25" height="24" viewBox="0 0 25 24" fill="none" xmlns="http://www.w3.org/2000/svg">
<path fill-rule="evenodd" clip-rule="evenodd" d="M12.75 1.75C11.4902 1.75 10.282 2.25044 9.39124 3.14124C8.50045 4.03204 8 5.24022 8 6.5C8 7.75978 8.50045 8.96796 9.39124 9.85876C10.282 10.7496 11.4902 11.25 12.75 11.25C14.0098 11.25 15.218 10.7496 16.1088 9.85876C16.9996 8.96796 17.5 7.75978 17.5 6.5C17.5 5.24022 16.9996 4.03204 16.1088 3.14124C15.218 2.25044 14.0098 1.75 12.75 1.75ZM9.5 6.5C9.5 5.63805 9.84241 4.8114 10.4519 4.2019C11.0614 3.59241 11.888 3.25 12.75 3.25C13.612 3.25 14.4386 3.59241 15.0481 4.2019C15.6576 4.8114 16 5.63805 16 6.5C16 7.36195 15.6576 8.1886 15.0481 8.7981C14.4386 9.40759 13.612 9.75 12.75 9.75C11.888 9.75 11.0614 9.40759 10.4519 8.7981C9.84241 8.1886 9.5 7.36195 9.5 6.5ZM12.75 12.75C10.71 12.75 8.828 13.22 7.428 14.02C6.05 14.808 5 16.01 5 17.5C5 18.99 6.05 20.192 7.428 20.98C8.828 21.78 10.711 22.25 12.75 22.25C14.79 22.25 16.672 21.78 18.072 20.98C19.45 20.192 20.5 18.99 20.5 17.5C20.5 16.01 19.45 14.808 18.072 14.02C16.672 13.22 14.789 12.75 12.75 12.75ZM6.5 17.5C6.5 16.78 7.017 15.983 8.172 15.323C9.306 14.675 10.923 14.25 12.75 14.25C14.577 14.25 16.194 14.675 17.328 15.323C18.483 15.983 19 16.781 19 17.5C19 18.22 18.483 19.017 17.328 19.677C16.194 20.325 14.577 20.75 12.75 20.75C10.923 20.75 9.306 20.325 8.172 19.677C7.017 19.017 6.5 18.22 6.5 17.5Z" fill="#07070A"/>
</svg>
