<svg width="24" height="24" viewBox="0 0 24 24" fill="none" xmlns="http://www.w3.org/2000/svg">
<path fill-rule="evenodd" clip-rule="evenodd" d="M8.99063 6.75928C8.79172 6.75928 8.60095 6.68026 8.4603 6.53961C8.31965 6.39896 8.24063 6.20819 8.24063 6.00928C8.24063 5.81036 8.31965 5.6196 8.4603 5.47895C8.60095 5.33829 8.79172 5.25928 8.99063 5.25928H17.9906C18.1895 5.25928 18.3803 5.33829 18.521 5.47895C18.6616 5.6196 18.7406 5.81036 18.7406 6.00928V15.0093C18.7406 15.2082 18.6616 15.399 18.521 15.5396C18.3803 15.6803 18.1895 15.7593 17.9906 15.7593C17.7917 15.7593 17.601 15.6803 17.4603 15.5396C17.3196 15.399 17.2406 15.2082 17.2406 15.0093V7.81928L6.52063 18.5393C6.37846 18.6718 6.19041 18.7439 5.99611 18.7405C5.80181 18.737 5.61642 18.6583 5.47901 18.5209C5.3416 18.3835 5.26288 18.1981 5.25946 18.0038C5.25603 17.8095 5.32815 17.6215 5.46063 17.4793L16.1806 6.75928H8.99063Z" fill="white"/>
</svg>
