<svg width="19" height="14" viewBox="0 0 19 14" fill="none" xmlns="http://www.w3.org/2000/svg">
<path fill-rule="evenodd" clip-rule="evenodd" d="M8.02963 13.5397C7.88901 13.6801 7.69838 13.759 7.49963 13.759C7.30088 13.759 7.11026 13.6801 6.96963 13.5397L0.969633 7.53969C0.829184 7.39907 0.750294 7.20844 0.750294 7.00969C0.750294 6.81094 0.829184 6.62032 0.969633 6.47969L6.96963 0.479692C7.0383 0.406006 7.1211 0.346904 7.2131 0.305912C7.30509 0.26492 7.40441 0.242879 7.50511 0.241102C7.60581 0.239326 7.70584 0.25785 7.79923 0.29557C7.89262 0.333291 7.97745 0.389437 8.04867 0.460655C8.11989 0.531874 8.17604 0.616708 8.21376 0.710096C8.25148 0.803485 8.27 0.903512 8.26823 1.00422C8.26645 1.10492 8.24441 1.20423 8.20341 1.29623C8.16242 1.38823 8.10332 1.47103 8.02963 1.53969L3.30963 6.25969L17.4996 6.25969C17.6985 6.25969 17.8893 6.33871 18.03 6.47936C18.1706 6.62002 18.2496 6.81078 18.2496 7.00969C18.2496 7.20861 18.1706 7.39937 18.03 7.54002C17.8893 7.68068 17.6985 7.75969 17.4996 7.75969L3.30963 7.75969L8.02963 12.4797C8.17008 12.6203 8.24897 12.8109 8.24897 13.0097C8.24897 13.2084 8.17008 13.3991 8.02963 13.5397Z" fill="#868E96"/>
</svg>
