<svg width="44" height="44" viewBox="0 0 44 44" fill="none" xmlns="http://www.w3.org/2000/svg">
<path fill-rule="evenodd" clip-rule="evenodd" d="M30.75 17C30.75 17.1989 30.671 17.3897 30.5303 17.5303C30.3897 17.671 30.1989 17.75 30 17.75H14C13.8011 17.75 13.6103 17.671 13.4697 17.5303C13.329 17.3897 13.25 17.1989 13.25 17C13.25 16.8011 13.329 16.6103 13.4697 16.4697C13.6103 16.329 13.8011 16.25 14 16.25H30C30.1989 16.25 30.3897 16.329 30.5303 16.4697C30.671 16.6103 30.75 16.8011 30.75 17ZM30.75 22C30.75 22.1989 30.671 22.3897 30.5303 22.5303C30.3897 22.671 30.1989 22.75 30 22.75H14C13.8011 22.75 13.6103 22.671 13.4697 22.5303C13.329 22.3897 13.25 22.1989 13.25 22C13.25 21.8011 13.329 21.6103 13.4697 21.4697C13.6103 21.329 13.8011 21.25 14 21.25H30C30.1989 21.25 30.3897 21.329 30.5303 21.4697C30.671 21.6103 30.75 21.8011 30.75 22ZM30.75 27C30.75 27.1989 30.671 27.3897 30.5303 27.5303C30.3897 27.671 30.1989 27.75 30 27.75H14C13.8011 27.75 13.6103 27.671 13.4697 27.5303C13.329 27.3897 13.25 27.1989 13.25 27C13.25 26.8011 13.329 26.6103 13.4697 26.4697C13.6103 26.329 13.8011 26.25 14 26.25H30C30.1989 26.25 30.3897 26.329 30.5303 26.4697C30.671 26.6103 30.75 26.8011 30.75 27Z" fill="black"/>
</svg>
