<svg width="22" height="22" viewBox="0 0 22 22" fill="none" xmlns="http://www.w3.org/2000/svg">
<path fill-rule="evenodd" clip-rule="evenodd" d="M5.99998 0.5C6.19889 0.5 6.38965 0.579018 6.53031 0.71967C6.67096 0.860322 6.74998 1.05109 6.74998 1.25V2.013C7.41198 2 8.14098 2 8.94298 2H13.056C13.859 2 14.588 2 15.25 2.013V1.25C15.25 1.05109 15.329 0.860322 15.4696 0.71967C15.6103 0.579018 15.8011 0.5 16 0.5C16.1989 0.5 16.3897 0.579018 16.5303 0.71967C16.671 0.860322 16.75 1.05109 16.75 1.25V2.077C17.01 2.097 17.256 2.122 17.489 2.153C18.661 2.311 19.61 2.643 20.359 3.391C21.107 4.14 21.439 5.089 21.597 6.261C21.75 7.401 21.75 8.856 21.75 10.694V12.806C21.75 14.644 21.75 16.1 21.597 17.239C21.439 18.411 21.107 19.36 20.359 20.109C19.61 20.857 18.661 21.189 17.489 21.347C16.349 21.5 14.894 21.5 13.056 21.5H8.94498C7.10698 21.5 5.65098 21.5 4.51198 21.347C3.33998 21.189 2.39098 20.857 1.64198 20.109C0.893976 19.36 0.561977 18.411 0.403977 17.239C0.250977 16.099 0.250977 14.644 0.250977 12.806V10.694C0.250977 8.856 0.250977 7.4 0.403977 6.261C0.561977 5.089 0.893976 4.14 1.64198 3.391C2.39098 2.643 3.33998 2.311 4.51198 2.153C4.74498 2.122 4.99198 2.097 5.25098 2.077V1.25C5.25098 1.05126 5.32986 0.860647 5.47029 0.720023C5.61073 0.5794 5.80124 0.500265 5.99998 0.5ZM4.70998 3.64C3.70498 3.775 3.12498 4.029 2.70198 4.452C2.27898 4.875 2.02498 5.455 1.88998 6.461C1.86698 6.631 1.84798 6.811 1.83198 7H20.168C20.152 6.81 20.133 6.631 20.11 6.46C19.975 5.455 19.721 4.875 19.298 4.452C18.875 4.029 18.295 3.775 17.289 3.64C16.262 3.502 14.907 3.5 13 3.5H8.99998C7.09298 3.5 5.73898 3.502 4.70998 3.64ZM1.74998 10.75C1.74998 9.896 1.74998 9.153 1.76298 8.5H20.237C20.25 9.153 20.25 9.896 20.25 10.75V12.75C20.25 14.657 20.248 16.012 20.11 17.04C19.975 18.045 19.721 18.625 19.298 19.048C18.875 19.471 18.295 19.725 17.289 19.86C16.262 19.998 14.907 20 13 20H8.99998C7.09298 20 5.73898 19.998 4.70998 19.86C3.70498 19.725 3.12498 19.471 2.70198 19.048C2.27898 18.625 2.02498 18.045 1.88998 17.039C1.75198 16.012 1.74998 14.657 1.74998 12.75V10.75Z" fill="#07070A"/>
</svg>
