<svg width="8" height="14" viewBox="0 0 8 14" fill="none" xmlns="http://www.w3.org/2000/svg">
<path d="M7.97266 6.99609C7.97266 7.26172 7.87109 7.49609 7.66016 7.69922L1.57422 13.6523C1.40234 13.8242 1.18359 13.918 0.933594 13.918C0.425781 13.918 0.0273438 13.5195 0.0273438 13.0117C0.0273438 12.7617 0.128906 12.5352 0.300781 12.3555L5.79297 6.99609L0.300781 1.63672C0.128906 1.46484 0.0273438 1.23047 0.0273438 0.980469C0.0273438 0.480469 0.425781 0.0820312 0.933594 0.0820312C1.19141 0.0820312 1.40234 0.167969 1.57422 0.339844L7.66016 6.29297C7.87109 6.48828 7.97266 6.73047 7.97266 6.99609Z" fill="#868E96"/>
</svg>
