<svg width="25" height="24" viewBox="0 0 25 24" fill="none" xmlns="http://www.w3.org/2000/svg">
<path d="M12.25 5.6079L11.71 6.1279C11.78 6.20048 11.8638 6.25822 11.9566 6.29766C12.0494 6.33709 12.1492 6.35742 12.25 6.35742C12.3508 6.35742 12.4506 6.33709 12.5434 6.29766C12.6362 6.25822 12.72 6.20048 12.79 6.1279L12.25 5.6079ZM9.676 18.4299C8.16 17.2349 6.503 16.0679 5.188 14.5879C3.9 13.1359 3 11.4429 3 9.2449H1.5C1.5 11.9109 2.61 13.9449 4.067 15.5839C5.497 17.1939 7.321 18.4839 8.747 19.6079L9.677 18.4299H9.676ZM3 9.2449C3 7.0949 4.215 5.2909 5.874 4.5319C7.486 3.7949 9.652 3.9899 11.71 6.1279L12.79 5.0889C10.35 2.5519 7.514 2.1329 5.25 3.1679C3.036 4.1809 1.5 6.5329 1.5 9.2449H3ZM8.747 19.6079C9.26 20.0119 9.81 20.4419 10.367 20.7679C10.924 21.0929 11.56 21.3579 12.25 21.3579V19.8579C11.94 19.8579 11.576 19.7379 11.124 19.4729C10.671 19.2089 10.202 18.8449 9.676 18.4299L8.747 19.6079ZM15.753 19.6079C17.179 18.4829 19.003 17.1949 20.433 15.5839C21.89 13.9439 23 11.9109 23 9.2449H21.5C21.5 11.4429 20.6 13.1359 19.312 14.5879C17.997 16.0679 16.34 17.2349 14.824 18.4299L15.753 19.6079ZM23 9.2449C23 6.5329 21.465 4.1809 19.25 3.1679C16.986 2.1329 14.152 2.5519 11.71 5.0879L12.79 6.1279C14.848 3.9909 17.014 3.7949 18.626 4.5319C20.285 5.2909 21.5 7.0939 21.5 9.2449H23ZM14.824 18.4299C14.298 18.8449 13.829 19.2089 13.376 19.4729C12.924 19.7369 12.56 19.8579 12.25 19.8579V21.3579C12.94 21.3579 13.576 21.0929 14.133 20.7679C14.691 20.4419 15.24 20.0119 15.753 19.6079L14.824 18.4299Z" fill="#07070A"/>
</svg>
