<svg width="24" height="24" viewBox="0 0 24 24" fill="none" xmlns="http://www.w3.org/2000/svg">
<path fill-rule="evenodd" clip-rule="evenodd" d="M15.0823 1.42013C16.3943 1.86113 17.2493 3.09613 17.2493 4.71513C17.2493 5.73213 16.6713 6.66913 16.0263 7.41513C15.3633 8.18413 14.5253 8.87313 13.7913 9.40813L13.6983 9.47613C12.9863 9.99613 12.3983 10.4261 11.4993 10.4261C10.5993 10.4261 10.0133 9.99613 9.30129 9.47613L9.20729 9.40813C8.47329 8.87313 7.63529 8.18413 6.97229 7.41613C6.32929 6.66913 5.74929 5.73213 5.74929 4.71513C5.74929 3.09613 6.60429 1.86213 7.91629 1.42013C9.03629 1.04313 10.3383 1.29213 11.4993 2.13713C12.6603 1.29213 13.9633 1.04313 15.0823 1.42013ZM14.6043 2.84213C13.9523 2.62213 12.9793 2.76413 12.0073 3.65813C11.8689 3.78533 11.6878 3.85592 11.4998 3.85592C11.3118 3.85592 11.1307 3.78533 10.9923 3.65813C10.0193 2.76413 9.04729 2.62213 8.39529 2.84213C7.76929 3.05213 7.24929 3.65613 7.24929 4.71513C7.24929 5.18213 7.53429 5.77013 8.10829 6.43613C8.66429 7.08113 9.40029 7.69313 10.0913 8.19613C10.9343 8.81113 11.1343 8.92613 11.4993 8.92613C11.8643 8.92613 12.0643 8.81113 12.9083 8.19613C13.5983 7.69313 14.3343 7.08113 14.8903 6.43613C15.4653 5.77013 15.7503 5.18213 15.7503 4.71513C15.7503 3.65513 15.2293 3.05213 14.6043 2.84213ZM8.18329 14.4481C10.0493 14.0861 12.0463 14.1681 13.6633 15.1321C13.8893 15.2671 14.1033 15.4361 14.2883 15.6441C14.6643 16.0661 14.8583 16.5911 14.8673 17.1171C15.0583 16.9941 15.2503 16.8571 15.4443 16.7101L17.2523 15.3451C17.7051 15.0123 18.2523 14.8327 18.8143 14.8327C19.3763 14.8327 19.9235 15.0123 20.3763 15.3451C21.2113 15.9751 21.5453 17.1081 20.9463 18.0671C20.5213 18.7491 19.8813 19.6921 19.2293 20.2961C18.5693 20.9061 17.6323 21.4191 16.9233 21.7621C16.0613 22.1781 15.1313 22.4071 14.2263 22.5541C12.3763 22.8541 10.4523 22.8071 8.62429 22.4311C7.68161 22.2371 6.72173 22.139 5.75929 22.1381H3.49929C3.30038 22.1381 3.10961 22.0591 2.96896 21.9185C2.82831 21.7778 2.74929 21.587 2.74929 21.3881C2.74929 21.1892 2.82831 20.9985 2.96896 20.8578C3.10961 20.7172 3.30038 20.6381 3.49929 20.6381H5.75929C6.82129 20.6381 7.89429 20.7481 8.92729 20.9621C10.5935 21.304 12.3077 21.3416 13.9873 21.0731C14.8153 20.9391 15.5893 20.7401 16.2713 20.4111C16.9543 20.0811 17.7223 19.6471 18.2093 19.1951C18.7023 18.7391 19.2533 17.9481 19.6743 17.2741C19.8013 17.0701 19.7833 16.7761 19.4723 16.5411C19.2798 16.4051 19.05 16.3321 18.8143 16.3321C18.5786 16.3321 18.3487 16.4051 18.1563 16.5411L16.3493 17.9071C15.6273 18.4521 14.7393 19.0351 13.6383 19.2101C13.523 19.2288 13.4073 19.2451 13.2913 19.2591C12.5906 19.34 11.8834 19.3467 11.1813 19.2791C11.0815 19.2722 10.9841 19.2454 10.8948 19.2003C10.8055 19.1552 10.7261 19.0927 10.6614 19.0165C10.5966 18.9402 10.5478 18.8518 10.5177 18.7564C10.4876 18.661 10.4769 18.5605 10.4863 18.4609C10.4956 18.3613 10.5248 18.2646 10.5721 18.1764C10.6194 18.0883 10.6838 18.0104 10.7616 17.9476C10.8394 17.8847 10.929 17.838 11.0251 17.8103C11.1213 17.7826 11.2219 17.7744 11.3213 17.7861C11.9493 17.8451 12.5113 17.8321 12.9893 17.7831L13.0193 17.7801C13.1126 17.7222 13.1919 17.6443 13.2514 17.5521C13.311 17.4598 13.3493 17.3555 13.3637 17.2466C13.378 17.1378 13.368 17.0271 13.3344 16.9225C13.3008 16.818 13.2444 16.7222 13.1693 16.6421C13.0896 16.5544 12.9968 16.4795 12.8943 16.4201C11.7133 15.7151 10.1353 15.5981 8.46829 15.9201C6.84004 16.2477 5.29646 16.9063 3.93329 17.8551C3.85292 17.9121 3.76211 17.9527 3.66605 17.9746C3.56999 17.9965 3.47056 17.9993 3.37343 17.9828C3.2763 17.9662 3.18337 17.9307 3.09996 17.8783C3.01655 17.8259 2.94428 17.7575 2.88729 17.6771C2.8303 17.5968 2.78969 17.506 2.76779 17.4099C2.74589 17.3138 2.74313 17.2144 2.75966 17.1173C2.77619 17.0201 2.81168 16.9272 2.86412 16.8438C2.91656 16.7604 2.98492 16.6881 3.06529 16.6311C4.60294 15.5591 6.34527 14.8159 8.18329 14.4481Z" fill="#07070A"/>
</svg>
