<svg width="48" height="48" viewBox="0 0 48 48" fill="none" xmlns="http://www.w3.org/2000/svg">
<path d="M25.9532 5.00283C27.3396 4.99751 28.7261 5.01144 30.1121 5.04462L30.4807 5.05792C30.9063 5.07312 31.3261 5.09212 31.8334 5.11492C33.8549 5.20992 35.2342 5.5291 36.4445 5.99838C37.6984 6.48095 38.7548 7.13452 39.8111 8.19086C40.777 9.14007 41.5245 10.2883 42.0017 11.5556C42.471 12.7658 42.7902 14.1471 42.8852 16.1686C42.908 16.6739 42.9269 17.0957 42.9422 17.5213L42.9535 17.8899C42.9873 19.2753 43.0019 20.6611 42.9972 22.0469L42.9991 23.4642V25.9531C43.0038 27.3395 42.9893 28.7259 42.9554 30.1119L42.944 30.4805C42.9289 30.9061 42.9099 31.326 42.8871 31.8332C42.7921 33.8547 42.4691 35.2341 42.0017 36.4443C41.5261 37.713 40.7783 38.8621 39.8111 39.8109C38.8611 40.7767 37.7123 41.5242 36.4445 42.0015C35.2342 42.4708 33.8549 42.79 31.8334 42.885C31.3261 42.9078 30.9063 42.9268 30.4807 42.942L30.1121 42.9534C28.7261 42.9872 27.3397 43.0017 25.9532 42.9971L24.5359 42.999H22.0489C20.6625 43.0037 19.2761 42.9891 17.89 42.9553L17.5215 42.9439C17.0704 42.9275 16.6195 42.9085 16.1687 42.8869C14.1472 42.7919 12.7679 42.4689 11.5558 42.0015C10.2879 41.5253 9.13954 40.7777 8.19103 39.8109C7.22407 38.8615 6.47585 37.7126 5.99855 36.4443C5.52927 35.2341 5.21009 33.8547 5.11509 31.8332C5.09393 31.3824 5.07493 30.9315 5.05809 30.4805L5.04859 30.1119C5.01357 28.7259 4.99773 27.3395 5.0011 25.9531V22.0469C4.99579 20.6611 5.00973 19.2753 5.04289 17.8899L5.05619 17.5213C5.07139 17.0957 5.09039 16.6739 5.11319 16.1686C5.20819 14.1452 5.52737 12.7677 5.99664 11.5556C6.47423 10.2876 7.22391 9.13976 8.19293 8.19276C9.14078 7.22524 10.2885 6.47634 11.5558 5.99838C12.7679 5.5291 14.1453 5.20992 16.1687 5.11492L17.5215 5.05792L17.89 5.04842C19.2754 5.01341 20.6612 4.99758 22.047 5.00093L25.9532 5.00283ZM24.0001 14.5004C21.4807 14.5004 19.0645 15.5013 17.283 17.2828C15.5014 19.0643 14.5006 21.4805 14.5006 24C14.5006 26.5194 15.5014 28.9356 17.283 30.7171C19.0645 32.4986 21.4807 33.4995 24.0001 33.4995C26.5195 33.4995 28.9358 32.4986 30.7173 30.7171C32.4988 28.9356 33.4996 26.5194 33.4996 24C33.4996 21.4805 32.4988 19.0643 30.7173 17.2828C28.9358 15.5013 26.5195 14.5004 24.0001 14.5004ZM24.0001 18.3002C24.7486 18.3001 25.4898 18.4474 26.1814 18.7337C26.8729 19.0201 27.5013 19.4398 28.0307 19.969C28.5601 20.4982 28.98 21.1264 29.2666 21.8179C29.5531 22.5094 29.7007 23.2505 29.7008 23.999C29.7009 24.7475 29.5536 25.4887 29.2673 26.1803C28.981 26.8718 28.5612 27.5002 28.032 28.0296C27.5029 28.5589 26.8746 28.9789 26.1831 29.2654C25.4917 29.552 24.7505 29.6995 24.002 29.6997C22.4904 29.6997 21.0406 29.0992 19.9717 28.0303C18.9028 26.9614 18.3023 25.5116 18.3023 24C18.3023 22.4883 18.9028 21.0386 19.9717 19.9696C21.0406 18.9007 22.4904 18.3002 24.002 18.3002M33.9765 11.6506C33.3636 11.6751 32.7839 11.9359 32.3589 12.3782C31.934 12.8205 31.6966 13.4101 31.6966 14.0236C31.6966 14.637 31.934 15.2266 32.3589 15.6689C32.7839 16.1113 33.3636 16.372 33.9765 16.3965C34.6064 16.3965 35.2104 16.1463 35.6558 15.701C36.1012 15.2556 36.3514 14.6515 36.3514 14.0217C36.3514 13.3918 36.1012 12.7877 35.6558 12.3424C35.2104 11.897 34.6064 11.6468 33.9765 11.6468" fill="#ffffff"/>
</svg>
