<svg width="49" height="48" viewBox="0 0 49 48" fill="none" xmlns="http://www.w3.org/2000/svg">
<path d="M43.5 12.1929C42.1013 12.8287 40.5937 13.2465 39.0316 13.4463C40.63 12.4836 41.8652 10.9578 42.4465 9.12316C40.9388 10.0314 39.2677 10.6671 37.5057 11.0304C36.0707 9.46828 34.0545 8.56006 31.7658 8.56006C27.4971 8.56006 24.0096 12.0476 24.0096 16.3526C24.0096 16.9702 24.0822 17.5696 24.2094 18.1327C17.7428 17.8058 11.9847 14.6996 8.15201 9.99505C7.47992 11.1394 7.09847 12.4836 7.09847 13.9004C7.09847 16.6069 8.4608 19.0046 10.5679 20.3669C9.2782 20.3669 8.07935 20.0037 7.02581 19.4587V19.5132C7.02581 23.2914 9.71415 26.452 13.2744 27.1604C12.1313 27.4732 10.9313 27.5168 9.76864 27.2876C10.262 28.8361 11.2282 30.191 12.5315 31.1619C13.8347 32.1329 15.4095 32.671 17.0344 32.7006C14.28 34.8811 10.8658 36.0598 7.35277 36.0429C6.73518 36.0429 6.11759 36.0065 5.5 35.9339C8.95124 38.1499 13.0564 39.4396 17.4522 39.4396C31.7658 39.4396 39.631 27.5601 39.631 17.2608C39.631 16.9157 39.631 16.5887 39.6128 16.2436C41.1386 15.1537 42.4465 13.7733 43.5 12.1929Z" fill="#868E96"/>
</svg>
