<svg width="19" height="14" viewBox="0 0 19 14" fill="none" xmlns="http://www.w3.org/2000/svg">
<path fill-rule="evenodd" clip-rule="evenodd" d="M10.9704 0.460307C11.111 0.319856 11.3016 0.240967 11.5004 0.240967C11.6991 0.240967 11.8897 0.319856 12.0304 0.460307L18.0304 6.46031C18.1708 6.60093 18.2497 6.79156 18.2497 6.99031C18.2497 7.18906 18.1708 7.37968 18.0304 7.52031L12.0304 13.5203C11.9617 13.594 11.8789 13.6531 11.7869 13.6941C11.6949 13.7351 11.5956 13.7571 11.4949 13.7589C11.3942 13.7607 11.2942 13.7422 11.2008 13.7044C11.1074 13.6667 11.0225 13.6106 10.9513 13.5393C10.8801 13.4681 10.824 13.3833 10.7862 13.2899C10.7485 13.1965 10.73 13.0965 10.7318 12.9958C10.7336 12.8951 10.7556 12.7958 10.7966 12.7038C10.8376 12.6118 10.8967 12.529 10.9704 12.4603L15.6904 7.74031H1.50037C1.30145 7.74031 1.11069 7.66129 0.970036 7.52064C0.829384 7.37998 0.750366 7.18922 0.750366 6.99031C0.750366 6.79139 0.829384 6.60063 0.970036 6.45998C1.11069 6.31932 1.30145 6.24031 1.50037 6.24031H15.6904L10.9704 1.52031C10.8299 1.37968 10.751 1.18906 10.751 0.990307C10.751 0.791556 10.8299 0.600932 10.9704 0.460307Z" fill="#07070A"/>
</svg>
