<svg width="24" height="24" viewBox="0 0 24 24" fill="none" xmlns="http://www.w3.org/2000/svg">
<path d="M10.03 8.96991C9.88783 8.83743 9.69978 8.76531 9.50548 8.76873C9.31118 8.77216 9.12579 8.85088 8.98838 8.98829C8.85097 9.1257 8.77225 9.31109 8.76883 9.50539C8.7654 9.69969 8.83752 9.88773 8.97 10.0299L10.94 11.9999L8.97 13.9699C8.89631 14.0386 8.83721 14.1214 8.79622 14.2134C8.75523 14.3054 8.73319 14.4047 8.73141 14.5054C8.72963 14.6061 8.74816 14.7061 8.78588 14.7995C8.8236 14.8929 8.87974 14.9777 8.95096 15.0489C9.02218 15.1202 9.10702 15.1763 9.2004 15.214C9.29379 15.2518 9.39382 15.2703 9.49452 15.2685C9.59523 15.2667 9.69454 15.2447 9.78654 15.2037C9.87854 15.1627 9.96134 15.1036 10.03 15.0299L12 13.0599L13.97 15.0299C14.1122 15.1624 14.3002 15.2345 14.4945 15.2311C14.6888 15.2277 14.8742 15.1489 15.0116 15.0115C15.149 14.8741 15.2277 14.6887 15.2312 14.4944C15.2346 14.3001 15.1625 14.1121 15.03 13.9699L13.06 11.9999L15.03 10.0299C15.1037 9.96125 15.1628 9.87845 15.2038 9.78645C15.2448 9.69445 15.2668 9.59513 15.2686 9.49443C15.2704 9.39373 15.2518 9.2937 15.2141 9.20031C15.1764 9.10692 15.1203 9.02209 15.049 8.95087C14.9778 8.87965 14.893 8.82351 14.7996 8.78579C14.7062 8.74807 14.6062 8.72954 14.5055 8.73132C14.4048 8.73309 14.3055 8.75514 14.2135 8.79613C14.1215 8.83712 14.0387 8.89622 13.97 8.96991L12 10.9399L10.03 8.96991Z" fill="#07070A"/>
</svg>
