<svg width="24" height="24" viewBox="0 0 24 24" fill="none" xmlns="http://www.w3.org/2000/svg">
<path d="M12.0039 15.9727C11.7383 15.9727 11.5039 15.8711 11.3008 15.6602L5.34766 9.57422C5.17578 9.40234 5.08203 9.18359 5.08203 8.93359C5.08203 8.42578 5.48047 8.02734 5.98828 8.02734C6.23828 8.02734 6.46484 8.12891 6.64453 8.30078L12.0039 13.793L17.3633 8.30078C17.5352 8.12891 17.7695 8.02734 18.0195 8.02734C18.5195 8.02734 18.918 8.42578 18.918 8.93359C18.918 9.19141 18.832 9.40234 18.6602 9.57422L12.707 15.6602C12.5117 15.8711 12.2695 15.9727 12.0039 15.9727Z" fill="#07070A"/>
</svg>
