<svg width="48" height="48" viewBox="0 0 48 48" fill="none" xmlns="http://www.w3.org/2000/svg">
<path d="M38.25 9.07129H9.75C8.49063 9.07264 7.28324 9.57351 6.39273 10.464C5.50222 11.3545 5.00135 12.5619 5 13.8213V34.1784C5.00135 35.4378 5.50222 36.6452 6.39273 37.5357C7.28324 38.4262 8.49063 38.9271 9.75 38.9284H38.25C39.5094 38.9271 40.7168 38.4262 41.6073 37.5357C42.4978 36.6452 42.9986 35.4378 43 34.1784V13.8213C42.9986 12.5619 42.4978 11.3545 41.6073 10.464C40.7168 9.57351 39.5094 9.07264 38.25 9.07129ZM37.0472 16.9283L24.8329 26.4283C24.5948 26.6135 24.3017 26.714 24 26.714C23.6983 26.714 23.4052 26.6135 23.1671 26.4283L10.9528 16.9283C10.8093 16.8199 10.6887 16.6841 10.5982 16.5288C10.5076 16.3734 10.4488 16.2016 10.4252 16.0233C10.4016 15.845 10.4137 15.6638 10.4607 15.4903C10.5078 15.3167 10.5889 15.1542 10.6992 15.0123C10.8096 14.8703 10.9471 14.7517 11.1037 14.6633C11.2604 14.5749 11.433 14.5186 11.6116 14.4975C11.7902 14.4764 11.9712 14.491 12.144 14.5405C12.3169 14.59 12.4783 14.6733 12.6187 14.7857L24 23.6377L35.3813 14.7857C35.6659 14.5708 36.0237 14.4765 36.3772 14.5233C36.7308 14.5701 37.0517 14.7542 37.2706 15.0357C37.4895 15.3172 37.5888 15.6736 37.547 16.0278C37.5052 16.382 37.3257 16.7055 37.0472 16.9283Z" fill="#ffffff"/>
</svg>
