<svg width="25" height="24" viewBox="0 0 25 24" fill="none" xmlns="http://www.w3.org/2000/svg">
<path fill-rule="evenodd" clip-rule="evenodd" d="M10.6547 3.247C10.1357 3.643 9.52575 4.251 8.64275 5.134C7.75975 6.017 7.15275 6.627 6.75575 7.146C6.37275 7.648 6.25875 7.976 6.25875 8.286C6.25875 8.596 6.37275 8.924 6.75575 9.426C7.15275 9.946 7.75975 10.556 8.64275 11.438L13.0617 15.857C13.9447 16.74 14.5547 17.347 15.0737 17.744C15.5757 18.127 15.9037 18.241 16.2137 18.241C16.5237 18.241 16.8517 18.127 17.3537 17.744C17.8727 17.348 18.4827 16.74 19.3657 15.857C20.2487 14.974 20.8558 14.364 21.2528 13.845C21.6357 13.342 21.7498 13.015 21.7498 12.705C21.7498 12.395 21.6357 12.067 21.2528 11.565C20.8568 11.045 20.2487 10.435 19.3657 9.553L14.9467 5.134C14.0637 4.251 13.4537 3.644 12.9347 3.247C12.4327 2.864 12.1047 2.75 11.7947 2.75C11.4847 2.75 11.1577 2.864 10.6547 3.247ZM9.74475 2.055C10.3807 1.57 11.0247 1.25 11.7947 1.25C12.5647 1.25 13.2087 1.57 13.8447 2.055C14.4537 2.519 15.1347 3.2 15.9697 4.035L16.2137 4.28C16.4527 4.042 16.6647 3.84 16.8987 3.706C17.2502 3.50308 17.6489 3.39625 18.0548 3.39625C18.4606 3.39625 18.8593 3.50308 19.2108 3.706C19.4778 3.86 19.7157 4.099 19.9977 4.381L20.0578 4.441L20.1187 4.502C20.4007 4.784 20.6398 5.022 20.7938 5.289C20.9967 5.64047 21.1035 6.03916 21.1035 6.445C21.1035 6.85084 20.9967 7.24953 20.7938 7.601C20.6588 7.835 20.4578 8.047 20.2197 8.286L20.4648 8.53C21.2997 9.366 21.9807 10.046 22.4447 10.655C22.9298 11.291 23.2498 11.935 23.2498 12.705C23.2498 13.475 22.9298 14.119 22.4447 14.755C21.9807 15.363 21.2997 16.044 20.4648 16.879L20.3878 16.956C19.5528 17.791 18.8717 18.472 18.2628 18.936C17.6278 19.421 16.9827 19.741 16.2127 19.741C15.4447 19.741 14.7997 19.421 14.1637 18.936C13.5547 18.472 12.8737 17.791 12.0387 16.956L11.7947 16.711L6.80175 21.705L6.74175 21.765C6.45975 22.047 6.22175 22.286 5.95475 22.44C5.60328 22.6429 5.20459 22.7498 4.79875 22.7498C4.39291 22.7498 3.99422 22.6429 3.64275 22.44C3.37575 22.286 3.13775 22.047 2.85575 21.765L2.79575 21.705L2.73475 21.644C2.45275 21.362 2.21375 21.124 2.05975 20.857C1.85683 20.5055 1.75 20.1068 1.75 19.701C1.75 19.2952 1.85683 18.8965 2.05975 18.545C2.21375 18.279 2.45275 18.04 2.73475 17.759L2.79475 17.698L7.78875 12.705L7.54375 12.461C6.70875 11.625 6.02775 10.945 5.56375 10.336C5.07875 9.7 4.75875 9.056 4.75875 8.286C4.75875 7.516 5.07875 6.872 5.56375 6.236C6.02775 5.628 6.70875 4.947 7.54375 4.112L7.62075 4.035C8.45575 3.2 9.13675 2.519 9.74575 2.055M8.84975 13.765L3.85575 18.76C3.47975 19.136 3.39975 19.225 3.35875 19.296C3.28748 19.4194 3.24996 19.5595 3.24996 19.702C3.24996 19.8445 3.28748 19.9846 3.35875 20.108C3.39875 20.18 3.47875 20.268 3.85575 20.645C4.23275 21.021 4.32175 21.101 4.39275 21.142C4.51619 21.2133 4.65621 21.2508 4.79875 21.2508C4.94128 21.2508 5.08131 21.2133 5.20475 21.142C5.27475 21.102 5.36475 21.022 5.74075 20.645L10.7347 15.652L8.84975 13.765ZM19.1597 7.225C19.3997 6.982 19.4618 6.911 19.4958 6.851C19.567 6.72756 19.6045 6.58754 19.6045 6.445C19.6045 6.30246 19.567 6.16244 19.4958 6.039C19.4548 5.968 19.3758 5.879 18.9988 5.502C18.6217 5.126 18.5327 5.046 18.4618 5.005C18.3383 4.93373 18.1983 4.89621 18.0557 4.89621C17.9132 4.89621 17.7732 4.93373 17.6497 5.005C17.5897 5.039 17.5187 5.101 17.2757 5.341L19.1597 7.225Z" fill="white"/>
</svg>
