<svg width="72" height="72" viewBox="0 0 72 72" fill="none" xmlns="http://www.w3.org/2000/svg">
<path fill-rule="evenodd" clip-rule="evenodd" d="M24.8388 16.5633C24.101 16.5633 23.3935 16.2702 22.8719 15.7485C22.3502 15.2269 22.0571 14.5194 22.0571 13.7816C22.0571 13.0439 22.3502 12.3364 22.8719 11.8147C23.3935 11.2931 24.101 11 24.8388 11H58.2184C58.9561 11 59.6636 11.2931 60.1853 11.8147C60.7069 12.3364 61 13.0439 61 13.7816V47.1612C61 47.899 60.7069 48.6065 60.1853 49.1281C59.6636 49.6498 58.9561 49.9429 58.2184 49.9429C57.4806 49.9429 56.7731 49.6498 56.2515 49.1281C55.7298 48.6065 55.4367 47.899 55.4367 47.1612V20.4946L15.6779 60.2534C15.1506 60.7448 14.4532 61.0123 13.7326 60.9996C13.0119 60.9869 12.3244 60.6949 11.8147 60.1853C11.3051 59.6756 11.0131 58.9881 11.0004 58.2674C10.9877 57.5468 11.2552 56.8494 11.7466 56.3221L51.5054 16.5633H24.8388Z" fill="black"/>
</svg>
